HIERARCHY
ROOT Hips
{
    OFFSET 0.000000 0.000000 0.000000
    CHANNELS 6 Xposition Yposition Zposition Zrotation Xrotation Yrotation
        JOINT Chest
        {
            OFFSET -0.000000 28.596201 -0.000000
            CHANNELS 3 Zrotation Xrotation Yrotation
            JOINT Neck
            {
                OFFSET -0.000000 20.833183 0.000000
                CHANNELS 3 Zrotation Xrotation Yrotation
                JOINT Head
                {
                    OFFSET -0.000000 10.327778 0.000000
                    CHANNELS 3 Zrotation Xrotation Yrotation
                    End Site
                    {
                        OFFSET -0.000000 15.961117 0.000000
                    }
                }
            }
            JOINT LeftCollar
            {
                OFFSET -0.000000 20.833183 0.000000
                CHANNELS 3 Zrotation Xrotation Yrotation
                JOINT LeftShoulder
                {
                    OFFSET 18.777777 -0.000000 0.000000
                    CHANNELS 3 Zrotation Xrotation Yrotation
                    JOINT LeftElbow
                    {
                        OFFSET 23.016544 0.000000 0.000000
                        CHANNELS 3 Zrotation Xrotation Yrotation
                        JOINT LeftWrist
                        {
                            OFFSET 24.619797 0.000000 0.000000
                            CHANNELS 3 Zrotation Xrotation Yrotation
                            End Site
                            {
                                OFFSET 0.000000 -14.083333 0.000000
                            }
                        }
                    }
                }
            }
            JOINT RightCollar
            {
                OFFSET -0.000000 20.833183 0.000000
                CHANNELS 3 Zrotation Xrotation Yrotation
                JOINT RightShoulder
                {
                    OFFSET -18.777777 0.000000 0.000000
                    CHANNELS 3 Zrotation Xrotation Yrotation
                    JOINT RightElbow
                    {
                        OFFSET -23.016544 0.000000 0.000000
                        CHANNELS 3 Zrotation Xrotation Yrotation
                        JOINT RightWrist
                        {
                            OFFSET -24.619797 0.000000 0.000000
                            CHANNELS 3 Zrotation Xrotation Yrotation
                            End Site
                            {
                                OFFSET -0.000000 -14.083333 0.000000
                            }
                        }
                    }
                }
            }
        }
    JOINT LeftHip
    {
        OFFSET 11.266668 0.000000 0.000000
        CHANNELS 3 Zrotation Xrotation Yrotation
        JOINT LeftKnee
        {
            OFFSET -0.000000 -40.535309 0.000000
            CHANNELS 3 Zrotation Xrotation Yrotation
            JOINT LeftAnkle
            {
                OFFSET -0.000000 -39.958225 0.000000
                CHANNELS 3 Zrotation Xrotation Yrotation
                End Site
                {
                    OFFSET -0.000000 -4.694444 15.961117
                }
            }
        }
    }
    JOINT RightHip
    {
        OFFSET -11.266668 0.000000 0.000000
        CHANNELS 3 Zrotation Xrotation Yrotation
        JOINT RightKnee
        {
            OFFSET -0.000000 -40.535309 0.000000
            CHANNELS 3 Zrotation Xrotation Yrotation
            JOINT RightAnkle
            {
                OFFSET -0.000000 -39.958225 0.000000
                CHANNELS 3 Zrotation Xrotation Yrotation
                End Site
                {
                    OFFSET -0.000000 -4.694444 15.961117
                }
            }
        }
    }
}
MOTION
Frames:    13
Frame Time:    0.010000
30.023920    88.042244    -67.363350    3.903723    1.892720    -92.117218    -3.165566    -5.834640    8.936189    -17.214144    17.998817    20.792284    7.095836    -38.584461    24.515253    -20.505066    -5.333678    28.984247    1.496966    62.013290    -66.766853    12.544559    -4.368039    -38.548878    96.809113    10.792409    86.600769    19.592249    0.806216    4.828615    28.059811    40.627808    14.373512    23.251213    13.322420    59.264359    -104.459579    -16.135300    15.451117    6.650886    -5.243320    6.985654    5.367769    4.422658    -4.098630    -2.993098    -4.721532    27.190102    9.363557    -3.189858    4.550231    -7.242707    11.815584    9.497658    -0.704810    -10.057659    -16.705351    
30.013407    88.040443    -67.374542    3.882952    1.896440    -92.091560    -3.685354    -5.698219    8.881447    -13.520719    19.398464    18.302322    8.880669    -34.551395    18.484282    -19.891663    -4.737592    25.196676    2.589257    63.125778    -67.616501    12.349153    -4.309920    -38.940376    97.223724    11.323709    86.646927    20.109444    0.484715    0.775724    27.898596    39.458893    14.994899    22.930838    13.083511    59.487480    -104.417419    -15.847267    15.330386    6.664628    -5.241781    7.084300    5.372597    4.448832    -4.226578    -3.042323    -4.753200    27.201059    9.376818    -3.164237    4.568844    -7.241189    11.822698    9.478764    -0.733079    -10.058247    -16.737642    
30.002668    88.019691    -67.370674    3.881478    1.893852    -92.047363    -3.619370    -5.708158    8.850720    -13.574083    19.430410    18.322374    8.652896    -34.826965    18.706707    -19.907768    -4.615781    25.263741    2.765034    63.001545    -67.932220    12.582139    -4.471694    -38.780006    97.211037    11.348845    86.558632    20.134195    0.318362    0.860074    27.963316    39.578911    14.763752    23.093655    13.284525    59.374962    -104.543121    -16.336840    15.388687    6.662880    -5.269238    7.142137    5.383907    4.480409    -4.309580    -3.013391    -4.758996    27.177433    9.390071    -3.168746    4.583478    -7.245559    11.851070    9.422737    -0.718915    -10.080243    -16.736952    
29.997030    88.019928    -67.378334    3.871094    1.892675    -92.016670    -3.568343    -5.701371    8.825099    -13.559791    19.414383    18.326603    8.652938    -34.767151    18.711788    -19.885099    -4.547232    25.287500    2.811336    62.972832    -68.080910    12.751648    -4.550622    -38.732796    97.254684    11.470508    86.566826    20.145992    0.241920    0.920498    28.035915    39.580566    14.608650    23.204483    13.363801    59.305332    -104.566582    -16.487246    15.465038    6.665429    -5.277241    7.195014    5.389390    4.500933    -4.388610    -3.016021    -4.771060    27.170588    9.396064    -3.159741    4.586919    -7.246299    11.864565    9.385359    -0.721219    -10.089458    -16.735188    
29.990751    88.021759    -67.387299    3.857674    1.890519    -91.977654    -3.510431    -5.694876    8.792003    -13.538006    19.406469    18.327625    8.644909    -34.703438    18.709560    -19.855080    -4.489327    25.303953    2.804888    62.967888    -68.151260    12.848495    -4.560999    -38.773239    97.377975    11.656001    86.575516    20.154972    0.193605    0.976685    28.078194    39.566975    14.499697    23.263208    13.382524    59.276134    -104.546577    -16.633438    15.547120    6.666505    -5.284804    7.244981    5.395337    4.523211    -4.473840    -3.017733    -4.783586    27.164637    9.401160    -3.148398    4.585159    -7.247524    11.880655    9.342392    -0.722723    -10.101198    -16.731562    
29.983585    88.024368    -67.396286    3.841429    1.886563    -91.929436    -3.446251    -5.689692    8.750637    -13.514244    19.405638    18.328901    8.630977    -34.638515    18.705576    -19.794708    -4.498765    25.318880    2.764094    63.023804    -68.216431    13.009191    -4.627460    -38.746185    97.479576    11.813936    86.549431    20.159599    0.193686    1.029746    28.103626    39.514862    14.417511    23.337826    13.418016    59.232121    -104.556580    -16.789545    15.616728    6.664199    -5.291626    7.284604    5.401906    4.546234    -4.559144    -3.018389    -4.795651    27.159943    9.403932    -3.135110    4.575144    -7.249363    11.899607    9.300099    -0.724363    -10.116014    -16.729887    
29.975462    88.027130    -67.403961    3.823571    1.879324    -91.871445    -3.377737    -5.687200    8.700248    -13.493104    19.411097    18.332886    8.615571    -34.573898    18.702694    -19.740360    -4.504077    25.332716    2.650084    63.083782    -68.163788    13.037927    -4.606523    -38.847248    97.678833    12.039480    86.493340    20.160858    0.173924    1.078935    28.111475    39.492874    14.360925    23.356161    13.393282    59.231655    -104.541504    -16.925098    15.676130    6.655764    -5.298380    7.305909    5.409523    4.568903    -4.636885    -3.018179    -4.806462    27.156231    9.401946    -3.121243    4.554168    -7.251340    11.921376    9.264396    -0.727166    -10.134218    -16.733997    
29.966465    88.029549    -67.409180    3.806210    1.867081    -91.804039    -3.307414    -5.689489    8.640746    -13.475175    19.422014    18.339130    8.600749    -34.509289    18.701111    -19.713785    -4.460578    25.343874    2.474146    63.094025    -68.019554    12.939226    -4.577891    -39.032375    97.980385    12.305737    86.351273    20.158642    0.213453    1.120317    28.112503    39.412323    14.316852    23.437233    13.448304    59.172985    -104.583786    -17.067543    15.723057    6.638309    -5.306617    7.302456    5.418646    4.590444    -4.699852    -3.017597    -4.815480    27.153366    9.392655    -3.108914    4.521468    -7.252819    11.945708    9.239274    -0.731954    -10.155771    -16.746307    
29.956699    88.031364    -67.411270    3.791424    1.848526    -91.728500    -3.236773    -5.699289    8.572811    -13.464129    19.436337    18.349628    8.589642    -34.443291    18.703182    -19.666792    -4.469337    25.360527    2.298610    63.140709    -67.930603    12.974932    -4.663720    -39.067455    98.142090    12.461999    86.143867    20.155102    0.213383    1.154838    28.092934    39.380093    14.301966    23.442114    13.417658    59.173450    -104.580437    -17.174339    15.763060    6.609970    -5.317765    7.271746    5.429484    4.610208    -4.743589    -3.017097    -4.822414    27.150963    9.374310    -3.099696    4.479249    -7.253114    11.971484    9.224139    -0.738854    -10.180027    -16.766829    
29.946188    88.032448    -67.410103    3.780446    1.823273    -91.646988    -3.166658    -5.718915    8.497551    -13.459075    19.454664    18.363337    8.582426    -34.374069    18.707903    -19.625103    -4.471521    25.379944    2.093853    63.196552    -67.780663    12.974722    -4.612550    -39.182251    98.279816    12.636215    85.989471    20.151449    0.213308    1.180365    28.077280    39.346069    14.280871    23.482737    13.429255    59.136559    -104.619980    -17.280401    15.787435    6.570580    -5.332312    7.215303    5.441749    4.628028    -4.766828    -3.017072    -4.827543    27.148640    9.346762    -3.094193    4.430848    -7.252231    11.997723    9.217059    -0.747419    -10.206256    -16.794540    
29.934767    88.032852    -67.406097    3.773737    1.791826    -91.562065    -3.096637    -5.750019    8.415451    -13.462004    19.476585    18.382061    8.580597    -34.300488    18.717226    -19.574556    -4.491398    25.404928    1.889446    63.278305    -67.649818    12.962740    -4.653872    -39.248394    98.488785    12.796030    85.776062    20.150110    0.173707    1.199448    28.057251    39.357792    14.262813    23.446215    13.436605    59.125549    -104.599388    -17.341347    15.793433    6.521563    -5.349872    7.137229    5.454787    4.643913    -4.770352    -3.017749    -4.831376    27.145689    9.311255    -3.092515    4.377229    -7.251150    12.024055    9.219229    -0.757300    -10.234293    -16.829081    
29.922104    88.032722    -67.399948    3.770885    1.755270    -91.476440    -3.025901    -5.793336    8.325816    -13.472086    19.503517    18.405468    8.584060    -34.223045    18.730665    -19.552549    -4.443037    25.427633    1.635522    63.317204    -67.429253    12.832897    -4.592110    -39.420536    98.715126    12.971787    85.557602    20.151009    0.207998    1.211771    28.032457    39.305523    14.252114    23.561190    13.514345    59.010357    -104.752678    -17.467466    15.778617    6.465206    -5.369116    7.043139    5.467723    4.657984    -4.756121    -3.018914    -4.834419    27.141195    9.269904    -3.094595    4.314425    -7.252322    12.051264    9.238586    -0.768189    -10.264864    -16.871281    
29.907747    88.032227    -67.392677    3.770754    1.715472    -91.392601    -2.952670    -5.848387    8.227478    -13.491827    19.533405    18.435768    8.595190    -34.141403    18.751558    -19.501785    -4.440870    25.450645    1.357075    63.403118    -67.259766    12.906018    -4.626387    -39.388294    98.777115    13.016317    85.362488    20.157007    0.242397    1.222828    27.975824    39.284042    14.284245    23.622086    13.518762    58.930534    -104.807495    -17.566849    15.812254    6.405075    -5.388339    6.940716    5.479539    4.670899    -4.728504    -3.020098    -4.837409    27.134212    9.225942    -3.099958    4.236631    -7.258717    12.080722    9.285106    -0.780415    -10.299139    -16.922794    
